<mxfile host="app.diagrams.net" modified="2021-10-15T17:24:57.688Z" agent="5.0 (Windows NT 10.0; Win64; x64) AppleWebKit/537.36 (KHTML, like Gecko) Chrome/94.0.4606.81 Safari/537.36" etag="CKIywEU9KfPcTXl_90cv" version="15.5.2" type="github">
  <diagram id="sxMFrem2wl8RH74wufwU" name="Page-1">
    <mxGraphModel dx="1662" dy="882" grid="1" gridSize="10" guides="1" tooltips="1" connect="1" arrows="1" fold="1" page="1" pageScale="1" pageWidth="850" pageHeight="1100" math="0" shadow="0">
      <root>
        <mxCell id="0" />
        <mxCell id="1" parent="0" />
        <mxCell id="HFGd1xvJwXEQQx8zuNfL-83" value="&lt;ul&gt;&lt;li&gt;&lt;font style=&quot;font-size: 16px&quot;&gt;rule&amp;nbsp;&amp;nbsp;&lt;/font&gt;&lt;/li&gt;&lt;li&gt;&lt;b&gt;&lt;font style=&quot;font-size: 16px&quot;&gt;ruleSets&amp;nbsp;=&amp;gt;&lt;/font&gt;&lt;/b&gt;&lt;/li&gt;&lt;li&gt;&lt;font size=&quot;3&quot;&gt;modifier&lt;/font&gt;&lt;/li&gt;&lt;li&gt;&lt;font size=&quot;3&quot;&gt;type&lt;/font&gt;&lt;/li&gt;&lt;/ul&gt;" style="rounded=0;whiteSpace=wrap;html=1;fontSize=18;align=left;" vertex="1" parent="1">
          <mxGeometry x="50" y="120" width="190" height="140" as="geometry" />
        </mxCell>
        <mxCell id="HFGd1xvJwXEQQx8zuNfL-91" style="edgeStyle=orthogonalEdgeStyle;rounded=0;orthogonalLoop=1;jettySize=auto;html=1;fontSize=18;" edge="1" parent="1" source="HFGd1xvJwXEQQx8zuNfL-84" target="HFGd1xvJwXEQQx8zuNfL-88">
          <mxGeometry relative="1" as="geometry" />
        </mxCell>
        <mxCell id="HFGd1xvJwXEQQx8zuNfL-84" value="" style="whiteSpace=wrap;html=1;aspect=fixed;fontSize=18;align=left;fillColor=#D5E8D4;" vertex="1" parent="1">
          <mxGeometry x="190" y="170" width="40" height="40" as="geometry" />
        </mxCell>
        <mxCell id="HFGd1xvJwXEQQx8zuNfL-86" value="&lt;ul&gt;&lt;li style=&quot;font-size: 12px&quot;&gt;&lt;span style=&quot;font-size: medium&quot;&gt;condition =&amp;gt;&amp;nbsp;&lt;/span&gt;&lt;br&gt;&lt;/li&gt;&lt;li&gt;&lt;font size=&quot;3&quot;&gt;trueWeight&lt;/font&gt;&lt;br&gt;&lt;/li&gt;&lt;li&gt;&lt;font size=&quot;3&quot;&gt;falseWeight&lt;/font&gt;&lt;br&gt;&lt;/li&gt;&lt;/ul&gt;" style="rounded=0;whiteSpace=wrap;html=1;fontSize=18;align=left;fillColor=#FFFFCC;" vertex="1" parent="1">
          <mxGeometry x="520" y="120" width="190" height="140" as="geometry" />
        </mxCell>
        <mxCell id="HFGd1xvJwXEQQx8zuNfL-87" value="" style="whiteSpace=wrap;html=1;aspect=fixed;fontSize=18;align=left;fillColor=#CCFFFF;" vertex="1" parent="1">
          <mxGeometry x="660" y="150" width="40" height="40" as="geometry" />
        </mxCell>
        <mxCell id="HFGd1xvJwXEQQx8zuNfL-88" value="&lt;ul&gt;&lt;li&gt;&lt;font&gt;&lt;b&gt;&lt;font style=&quot;font-size: 16px&quot;&gt;rule&amp;nbsp; &lt;/font&gt;=&amp;gt;&lt;/b&gt;&lt;/font&gt;&lt;/li&gt;&lt;li style=&quot;font-size: 12px&quot;&gt;&lt;font size=&quot;3&quot;&gt;ruleSets&amp;nbsp;&lt;/font&gt;&lt;/li&gt;&lt;li style=&quot;font-size: 12px&quot;&gt;&lt;font size=&quot;3&quot;&gt;modifier&lt;/font&gt;&lt;/li&gt;&lt;li style=&quot;font-size: 12px&quot;&gt;&lt;font size=&quot;3&quot;&gt;type&lt;/font&gt;&lt;/li&gt;&lt;/ul&gt;" style="rounded=0;whiteSpace=wrap;html=1;fontSize=18;align=left;fillColor=#D5E8D4;" vertex="1" parent="1">
          <mxGeometry x="280" y="120" width="190" height="140" as="geometry" />
        </mxCell>
        <mxCell id="HFGd1xvJwXEQQx8zuNfL-99" style="edgeStyle=orthogonalEdgeStyle;rounded=0;orthogonalLoop=1;jettySize=auto;html=1;fontSize=10;" edge="1" parent="1" source="HFGd1xvJwXEQQx8zuNfL-89" target="HFGd1xvJwXEQQx8zuNfL-86">
          <mxGeometry relative="1" as="geometry">
            <Array as="points">
              <mxPoint x="500" y="160" />
              <mxPoint x="500" y="190" />
            </Array>
          </mxGeometry>
        </mxCell>
        <mxCell id="HFGd1xvJwXEQQx8zuNfL-89" value="" style="whiteSpace=wrap;html=1;aspect=fixed;fontSize=18;align=left;fillColor=#FFFFCC;" vertex="1" parent="1">
          <mxGeometry x="405" y="140" width="40" height="40" as="geometry" />
        </mxCell>
        <mxCell id="HFGd1xvJwXEQQx8zuNfL-92" value="&lt;font style=&quot;font-size: 18px&quot;&gt;Parent RuleSet&lt;/font&gt;" style="text;strokeColor=none;fillColor=none;html=1;fontSize=24;fontStyle=1;verticalAlign=middle;align=center;" vertex="1" parent="1">
          <mxGeometry x="70" y="80" width="145" height="40" as="geometry" />
        </mxCell>
        <mxCell id="HFGd1xvJwXEQQx8zuNfL-94" value="&lt;font style=&quot;font-size: 18px&quot;&gt;RuleSet&lt;/font&gt;" style="text;strokeColor=none;fillColor=none;html=1;fontSize=24;fontStyle=1;verticalAlign=middle;align=center;" vertex="1" parent="1">
          <mxGeometry x="302.5" y="80" width="145" height="40" as="geometry" />
        </mxCell>
        <mxCell id="HFGd1xvJwXEQQx8zuNfL-95" value="&lt;font style=&quot;font-size: 18px&quot;&gt;Rule&lt;/font&gt;" style="text;strokeColor=none;fillColor=none;html=1;fontSize=24;fontStyle=1;verticalAlign=middle;align=center;" vertex="1" parent="1">
          <mxGeometry x="530" y="80" width="145" height="40" as="geometry" />
        </mxCell>
      </root>
    </mxGraphModel>
  </diagram>
</mxfile>
